<?xml version="1.0" encoding="utf-8"?>
<svg version="1.1" id="Layer_1" xmlns="http://www.w3.org/2000/svg" xmlns:xlink="http://www.w3.org/1999/xlink" x="0px" y="0px"
     viewBox="0 0 16 16" style="enable-background:new 0 0 16 16;" xml:space="preserve">
<style type="text/css">
    .st0{fill:none;stroke:#8C8FA1;stroke-linecap:round;stroke-linejoin:round;}
    .st1{fill:none;stroke:#8C8FA1;stroke-linecap:round;stroke-linejoin:round;stroke-dasharray:0.9847,1.4771;}
    .st2{fill:none;stroke:#8C8FA1;stroke-linecap:round;stroke-linejoin:round;stroke-dasharray:0.9892,1.4838;}
    .st3{fill:none;stroke:#8C8FA1;stroke-linecap:round;stroke-linejoin:round;stroke-dasharray:0.9731,1.4597;}
    .st4{fill:none;stroke:#8C8FA1;stroke-linecap:round;stroke-linejoin:round;stroke-dasharray:0.8889,1.3333;}
</style>
<g>
    <g>
        <g>
            <path class="st0" d="M8,6.5c0.2,0,0.3,0,0.5,0"/>
            <path class="st1" d="M10,6.4c2.6-0.4,4.5-1.5,4.5-2.5c0-1.3-2.9-2.3-6.5-2.3s-6.5,1-6.5,2.3c0,1.1,2.3,2.4,5.3,2.6"/>
            <path class="st0" d="M7.5,6.5c0.2,0,0.3,0,0.5,0"/>
        </g>
        <g>
            <path class="st0" d="M14.5,8c0,0.2,0,0.3-0.1,0.5"/>
            <path class="st2" d="M13.3,9.5c-0.5,0.3-1.2,0.6-2,0.7c-2,0.4-4.5,0.4-6.5,0C3.6,10,2.7,9.5,2.1,9"/>
            <path class="st0" d="M1.6,8.5C1.5,8.3,1.5,8.2,1.5,8"/>
        </g>
        <g>
            <path class="st0" d="M14.5,12.2c0,0.2,0,0.3-0.1,0.5"/>
            <path class="st3" d="M13.2,13.6c-0.5,0.3-1.2,0.5-2,0.6c-2,0.4-4.5,0.4-6.5,0c-1.2-0.2-2.1-0.6-2.6-1"/>
            <path class="st0" d="M1.6,12.7c-0.1-0.2-0.1-0.3-0.1-0.5"/>
        </g>
        <g>
            <line class="st0" x1="1.5" y1="3.5" x2="1.5" y2="4"/>
            <line class="st4" x1="1.5" y1="5.3" x2="1.5" y2="11.3"/>
            <line class="st0" x1="1.5" y1="12" x2="1.5" y2="12.5"/>
        </g>
        <g>
            <line class="st0" x1="14.5" y1="3.5" x2="14.5" y2="4"/>
            <line class="st4" x1="14.5" y1="5.3" x2="14.5" y2="11.3"/>
            <line class="st0" x1="14.5" y1="12" x2="14.5" y2="12.5"/>
        </g>
    </g>
</g>
</svg>
