<svg xmlns="http://www.w3.org/2000/svg" width="16" height="16" viewBox="0 0 16 16">
    <g fill="none" stroke-linecap="round" stroke-linejoin="round">
        <path stroke="#df8e1d" d="M 4.5,7.5000001 V 11 m 0,-6.4999999 v -1.5 m 0,4.5 c 1.9999991,0 1.9999991,-3 0,-3 -1.9999991,0 -1.9999991,3 0,3 m 5.0000001,-1 v -3.5 M 10.906249,7.4492189 C 10.843749,7.2734376 10.749999,7.1093751 10.625,6.9687501 10.375,6.6875001 10,6.5000001 9.5000001,6.5000001 c -0.9999996,0 -1.4999993,0.75 -1.4999993,1.5 0,0.1875 0.03125,0.375 0.09375,0.5507813 M 3.0000001,0.5 H 11 c 1.380712,0 2.5,1.1192882 2.5,2.5000001 V 7 M 6.0750308,13.5 H 3.0000001 C 1.6192882,13.5 0.5,12.380712 0.5,11 V 3.0000001 C 0.49999994,1.6192881 1.6192881,0.49999994 3.0000001,0.5" />
        <g stroke="#1e66f5">
            <path d="m 8.5,11.5 h 5 L 13.75,11 c -0.151299,-0.554645 -0.464664,-0.945198 -0.25,-1.5 0.469981,0.2967216 0.650865,0.937471 1,1 0.357028,-0.04442 1,-1 1,0 0,0 0,1.5 -1,1.5 C 14,14 12.75,14.500026 11,14.500026 8.25,14.500026 8.5,11.5 8.5,11.5 Z" />
            <path d="m 9.5,11.5 v -2 h 2 v 1 1" />
        </g>
    </g>
</svg>
