<?xml version="1.0" encoding="utf-8"?>
<svg xmlns="http://www.w3.org/2000/svg" width="16" height="16" viewBox="0 0 16 16">
  <g fill="none" stroke-linecap="round" stroke-linejoin="round">
    <path stroke="#8C8FA1" d="M 1.875 8 L 2.561 5.257 C 2.672 4.812 3.072 4.5 3.531 4.5 L 14.469 4.5 C 15.022 4.5 15.469 4.948 15.469 5.5 C 15.469 5.582 15.459 5.663 15.439 5.743 L 15.124 7.003 M 6 13.5 L 2.004 13.5 C 1.172 13.5 0.5 12.828 0.5 12 L 0.5 3.5 C 0.5 2.948 0.948 2.5 1.5 2.5 L 6.5 2.5 C 7.052 2.5 7.5 2.948 7.5 3.5 L 7.5 4.5"/>
    <path stroke="#EA76CB" d="m 12,8.2528972 v 0.750585 M 8.5,8.5 V 15 l 5,0.500002 L 13.514549,8 Z"/>
    <path d="M 10.011 13.001 C 10.011 13.55 10.539 14.001 11.011 14.001 C 11.482 14.001 12.011 13.472 12.011 13.001 C 12.011 12.529 11.011 12.001 11.011 12.001 C 11.011 12.001 10.011 11.472 10.011 11.001 C 10.011 10.529 10.539 10.001 11.011 10.001 C 11.482 10.001 11.913 10.539 12.011 11.001" stroke="#4C4F69"/>
  </g>
</svg>
