<?xml version="1.0" encoding="utf-8"?>
    <svg xmlns="http://www.w3.org/2000/svg" width="16" height="16" viewBox="0 0 16 16">
    <g fill="none" stroke-linecap="round" stroke-linejoin="round" stroke-width="1.083" transform="translate(-.885 -.885)scale(.92308)">
        <path stroke="#8C8FA1" d="M13.5 9.5c.63-.7 1-1.54 1-2.43 0-2.52-2.91-4.57-6.5-4.57S1.5 4.55 1.5 7.07c0 1.9 1.65 3.53 4 4.22"/>
        <path stroke="#1e66f5" d="M 10.5 9.5 C 10.9 9.5 11.36 9.84 11.5 10.2 L 11.777 11.103 M 7.5 13.5 L 7.5 5.5 L 10.55 5.5 C 11.5 5.5 12.5 6.5 12.5 7.5 C 12.5 8.5 11.5 9.5 10.55 9.5 L 7.5 9.5 L 7.5 13.5 Z"/>
    </g>
    <path fill="none" stroke="#4C4F69" stroke-linecap="round" stroke-linejoin="round" d="M11.5 13.5a1 1 0 100-2 1 1 0 000 2m1.75-4 1.75 3-1.75 3h-3.5L8 12.5l1.75-3z"/>
</svg>
