<?xml version="1.0" encoding="utf-8"?>
<svg xmlns="http://www.w3.org/2000/svg" width="16" height="16" viewBox="0 0 16 16">
  <g fill="none" stroke-linecap="round" stroke-linejoin="round" stroke-width="1.083" transform="translate(-.885 -.885)scale(.92308)">
    <path stroke="#8C8FA1" d="M13.5 9.5c.63-.7 1-1.54 1-2.43 0-2.52-2.91-4.57-6.5-4.57S1.5 4.55 1.5 7.07c0 1.9 1.65 3.53 4 4.22"/>
    <path stroke="#1e66f5" d="M 10.5 9.5 C 10.9 9.5 11.36 9.84 11.5 10.2 L 11.777 11.103 M 7.5 13.5 L 7.5 5.5 L 10.55 5.5 C 11.5 5.5 12.5 6.5 12.5 7.5 C 12.5 8.5 11.5 9.5 10.55 9.5 L 7.5 9.5 L 7.5 13.5 Z"/>
  </g>
  <path stroke="#4C4F69" d="M 14 11.5 C 14.27 11.5 14.5 11.72 14.5 12 L 14.5 15 C 14.5 15.276 14.276 15.5 14 15.5 L 9 15.5 C 8.724 15.5 8.5 15.276 8.5 15 L 8.5 12 C 8.5 11.72 8.72 11.5 9 11.5 L 14 11.5 Z M 10 11.5 L 10 10 C 10 8.845 11.25 8.124 12.25 8.701 C 12.714 8.969 13 9.464 13 10 L 13 11.5" style="fill: rgba(255, 255, 255, 0);"/>
</svg>